<svg width="199" height="67" viewBox="0 0 199 67" fill="none" xmlns="http://www.w3.org/2000/svg">
<path d="M72 19.8594C94.9584 1.41077 150.437 -20.6552 188.579 38.0209L194.674 30H199L188.579 44.2331C172.691 19.8898 137.042 -20.4972 72 19.8594Z" fill="#CF2C31"/>
<path d="M51.7749 36.7416C51.6841 35.8602 51.2945 35.1755 50.606 34.6874C49.9176 34.1994 48.9832 33.9553 47.8029 33.9553C47.001 33.9553 46.3238 34.0646 45.7716 34.2831C45.2193 34.4944 44.7956 34.7894 44.5005 35.1682C44.213 35.547 44.0693 35.9767 44.0693 36.4575C44.0541 36.8581 44.1411 37.2078 44.3303 37.5064C44.527 37.8051 44.7956 38.0637 45.136 38.2822C45.4765 38.4934 45.8699 38.6792 46.3163 38.8394C46.7627 38.9924 47.2393 39.1235 47.7462 39.2328L49.8343 39.7135C50.8481 39.9321 51.7787 40.2234 52.6261 40.5876C53.4734 40.9519 54.2073 41.3998 54.8277 41.9316C55.4481 42.4633 55.9285 43.0898 56.269 43.8109C56.617 44.5321 56.7948 45.3588 56.8023 46.2912C56.7948 47.6606 56.4316 48.848 55.7129 49.8532C55.0017 50.8511 53.9728 51.6269 52.6261 52.1805C51.2869 52.7268 49.6717 53 47.7802 53C45.9039 53 44.2698 52.7232 42.8777 52.1696C41.4931 51.616 40.4113 50.7965 39.632 49.7112C38.8603 48.6185 38.4555 47.2673 38.4177 45.6575H43.1727C43.2257 46.4078 43.4489 47.0342 43.8423 47.5368C44.2433 48.0321 44.7767 48.4073 45.4424 48.6622C46.1158 48.9099 46.8761 49.0337 47.7235 49.0337C48.5557 49.0337 49.2783 48.9172 49.8911 48.6841C50.5115 48.451 50.9919 48.1268 51.3323 47.7116C51.6728 47.2964 51.843 46.8193 51.843 46.2803C51.843 45.7777 51.6879 45.3552 51.3777 45.0128C51.0751 44.6705 50.6287 44.3791 50.0386 44.1387C49.456 43.8983 48.7411 43.6798 47.8937 43.4831L45.363 42.8713C43.4035 42.4123 41.8563 41.6949 40.7214 40.7188C39.5866 39.7427 39.0229 38.4279 39.0305 36.7743C39.0229 35.4195 39.3974 34.2358 40.154 33.2233C40.9182 32.2108 41.966 31.4204 43.2976 30.8523C44.6291 30.2841 46.1423 30 47.837 30C49.562 30 51.0675 30.2841 52.3537 30.8523C53.6474 31.4204 54.6537 32.2108 55.3724 33.2233C56.0912 34.2358 56.4619 35.4086 56.4846 36.7416H51.7749Z" fill="#CF2C31"/>
<path d="M0 30.3059V52.6831H4.91392V43.4394H14.3673V39.5387H4.91392V34.2066H15.3886V30.3059H0Z" fill="#CF2C31"/>
<path fill-rule="evenodd" clip-rule="evenodd" d="M14.5318 52.6831H19.7976L21.5217 47.5805H29.9133L31.6341 52.6831H36.8998L28.8877 30.3059H22.5553L14.5318 52.6831ZM28.6679 43.8874L25.8123 35.4195H25.6307L22.7695 43.8874H28.6679Z" fill="#CF2C31"/>
<path d="M59.2224 30.3059V34.2066H66.338V52.6831H71.1952V34.2066H78.3107V30.3059H59.2224Z" fill="#CF2C31"/>
<path fill-rule="evenodd" clip-rule="evenodd" d="M97.0897 52.6831H88.8507V30.3059H97.1578C99.4956 30.3059 101.508 30.7539 103.195 31.6499C104.882 32.5386 106.18 33.8169 107.088 35.485C108.003 37.1531 108.461 39.149 108.461 41.4727C108.461 43.8036 108.003 45.8068 107.088 47.4822C106.18 49.1576 104.875 50.4432 103.173 51.3392C101.478 52.2352 99.4502 52.6831 97.0897 52.6831ZM93.7646 48.6295H96.8854C98.3381 48.6295 99.5599 48.3818 100.551 47.8865C101.55 47.3839 102.299 46.6081 102.798 45.5591C103.305 44.5029 103.558 43.1408 103.558 41.4727C103.558 39.8192 103.305 38.4679 102.798 37.419C102.299 36.3701 101.553 35.5979 100.562 35.1026C99.5713 34.6073 98.3494 34.3596 96.8968 34.3596H93.7646V48.6295Z" fill="#CF2C31"/>
<path d="M112.101 30.3059V52.6831H127.807V48.7824H117.015V43.4394H126.956V39.5387H117.015V34.2066H127.762V30.3059H112.101Z" fill="#CF2C31"/>
<path fill-rule="evenodd" clip-rule="evenodd" d="M140.975 30.3059C142.684 30.3059 144.111 30.55 145.253 31.038C146.395 31.5261 147.254 32.2035 147.829 33.0703C148.404 33.9299 148.692 34.9205 148.692 36.0423C148.692 36.9164 148.51 37.6849 148.147 38.3477C147.784 39.0033 147.284 39.5424 146.649 39.9648C146.021 40.38 145.302 40.6751 144.493 40.8499V41.0684C145.378 41.1048 146.206 41.3452 146.978 41.7896C147.757 42.2339 148.389 42.8567 148.873 43.658C149.357 44.4519 149.599 45.3989 149.599 46.4988C149.599 47.6861 149.293 48.746 148.68 49.6784C148.075 50.6035 147.178 51.3355 145.991 51.8746C144.803 52.4136 143.339 52.6831 141.599 52.6831H131.669V30.3059H140.975ZM140.589 48.8152C141.958 48.8152 142.957 48.5639 143.585 48.0613C144.213 47.5514 144.527 46.874 144.527 46.029C144.527 45.4098 144.372 44.8635 144.061 44.39C143.751 43.9165 143.309 43.5451 142.734 43.2755C142.166 43.006 141.489 42.8713 140.702 42.8713H136.583V48.8152H140.589ZM140.226 39.6698C140.899 39.6698 141.497 39.5569 142.019 39.3311C142.548 39.098 142.964 38.7702 143.267 38.3477C143.577 37.9253 143.732 37.419 143.732 36.829C143.732 36.1215 143.503 35.5339 143.046 35.0662C142.98 34.9994 142.91 34.9351 142.836 34.8732C142.246 34.3778 141.406 34.1302 140.316 34.1302H136.583V39.6698H140.226Z" fill="#CF2C31"/>
<path d="M151.912 30.3059V34.2066H159.027V52.6831H163.884V34.2066H171V30.3059H151.912Z" fill="#CF2C31"/>
<path d="M46.6585 58V61.4813H50.2561V58H51.9146V67H50.2561V62.9925H46.6585V67H45V58H46.6585Z" fill="#CF2C31"/>
<path d="M63.7683 58V59.5112H60.5646V61.5217H63.6348V63.033H60.5646V65.4888H63.7683V67H58.8293V58H63.7683Z" fill="#CF2C31"/>
<path d="M72.2117 58H70.6829V67H74.6341V65.4888H72.2117V58Z" fill="#CF2C31"/>
<path fill-rule="evenodd" clip-rule="evenodd" d="M81.5488 58H84.1739C84.7332 58 85.1888 58.0495 85.5406 58.1484C85.9014 58.2384 86.2397 58.4183 86.5555 58.6882C87.1689 59.2279 87.4756 59.952 87.4756 60.8606C87.4756 61.7061 87.2275 62.3763 86.7314 62.8711C86.1991 63.4018 85.4369 63.6672 84.4445 63.6672H83.3079V67H81.5488V58ZM83.3079 59.5112V62.1559H84.0251C84.5393 62.1559 84.9227 62.0615 85.1752 61.8726C85.5 61.6207 85.6624 61.2699 85.6624 60.8201C85.6624 60.3793 85.4955 60.0375 85.1617 59.7946C84.8911 59.6057 84.4761 59.5112 83.9168 59.5112H83.3079Z" fill="#CF2C31"/>
<path d="M99.3293 59.5112V58H94.3902V67H99.3293V65.4888H96.1256V63.033H99.1958V61.5217H96.1256V59.5112H99.3293Z" fill="#CF2C31"/>
<path fill-rule="evenodd" clip-rule="evenodd" d="M106.244 58H108.99C110.033 58 110.839 58.2249 111.409 58.6747C112.035 59.1784 112.348 59.8531 112.348 60.6987C112.348 61.6342 111.978 62.3403 111.238 62.8171C110.953 63.006 110.607 63.1364 110.199 63.2084L113.159 67H110.854L108.321 63.3838H108.093V67H106.244V58ZM108.093 59.4303V62.1424H108.62C108.772 62.1424 108.919 62.1334 109.061 62.1154C109.213 62.0885 109.407 62.039 109.644 61.967C109.881 61.8861 110.071 61.7466 110.213 61.5487C110.365 61.3418 110.441 61.0855 110.441 60.7796C110.441 60.4738 110.37 60.2219 110.228 60.024C110.085 59.8171 109.896 59.6777 109.659 59.6057C109.421 59.5247 109.232 59.4753 109.089 59.4573C108.947 59.4393 108.8 59.4303 108.648 59.4303H108.093Z" fill="#CF2C31"/>
<path d="M124.82 60.1564L125.692 59.0072C125.042 58.3357 124.234 58 123.268 58C122.378 58 121.698 58.2496 121.228 58.7489C120.757 59.2396 120.522 59.8336 120.522 60.5308C120.522 61.2023 120.749 61.736 121.202 62.132C121.519 62.4161 121.993 62.6657 122.626 62.8809C123.302 63.1133 123.742 63.3242 123.947 63.5136C124.17 63.7288 124.281 63.9871 124.281 64.2884C124.281 64.6413 124.157 64.9297 123.909 65.1535C123.661 65.3687 123.344 65.4763 122.96 65.4763C122.618 65.4763 122.28 65.3816 121.946 65.1923C121.613 65.0029 121.352 64.7145 121.164 64.3271L120.073 65.373C120.809 66.4577 121.792 67 123.024 67C123.905 67 124.619 66.7418 125.166 66.2253C125.722 65.7001 126 65.0158 126 64.1722C126 63.406 125.756 62.8034 125.269 62.3644C124.961 62.0803 124.384 61.792 123.537 61.4993C122.99 61.3013 122.647 61.1377 122.511 61.0086C122.331 60.8537 122.241 60.66 122.241 60.4275C122.241 60.1607 122.335 59.9283 122.523 59.7303C122.712 59.5237 123.011 59.4204 123.421 59.4204C123.986 59.4204 124.452 59.6657 124.82 60.1564Z" fill="#CF2C31"/>
</svg>
