<svg width="55" height="61" viewBox="0 0 55 61" fill="none" xmlns="http://www.w3.org/2000/svg">
<path d="M27.5 9.00858V2M27.5 2H20M27.5 2H35M27.5 20.0221V33.4688H39.7995M53 33.4688C53 47.5693 41.5833 59 27.5 59C13.4167 59 2 47.5693 2 33.4688C2 19.3682 13.4167 7.9375 27.5 7.9375C41.5833 7.9375 53 19.3682 53 33.4688Z" stroke="#CF2C31" stroke-width="3"/>
<path d="M27.5 9.00858V2M27.5 2H20M27.5 2H35M27.5 20.0221V33.4688H39.7995M53 33.4688C53 47.5693 41.5833 59 27.5 59C13.4167 59 2 47.5693 2 33.4688C2 19.3682 13.4167 7.9375 27.5 7.9375C41.5833 7.9375 53 19.3682 53 33.4688Z" stroke="#CF2C31" stroke-width="3"/>
<path d="M27.5 9.00858V2M27.5 2H20M27.5 2H35M27.5 20.0221V33.4688H39.7995M53 33.4688C53 47.5693 41.5833 59 27.5 59C13.4167 59 2 47.5693 2 33.4688C2 19.3682 13.4167 7.9375 27.5 7.9375C41.5833 7.9375 53 19.3682 53 33.4688Z" stroke="#CF2C31" stroke-width="3"/>
</svg>
